<svg width="40" height="40" viewBox="0 0 40 40" fill="none" xmlns="http://www.w3.org/2000/svg">
<rect width="40" height="40" fill="#1E1E1E"/>
<g id="Home">
<rect x="-239" y="-20" width="1920" height="3870" rx="25" fill="#272727"/>
<g id="Header">
<g id="Logo" clip-path="url(#clip0_0_1)">
<path id="Vector" d="M39.7969 7.55216C39.9436 7.30184 40.0088 7.00096 39.9756 6.70048C39.9437 6.33212 39.8949 6.04856 39.8299 5.83108C39.6831 5.3798 39.3415 4.9794 38.6752 4.46096C38.171 4.0764 37.5685 3.6926 36.9184 3.35779C35.6991 2.70628 33.8124 1.93752 31.8449 1.93752H31.5693C30.5445 1.93752 29.341 1.51979 28.2843 1.15254C27.7148 0.952384 27.1787 0.76876 26.6584 0.6341C26.2677 0.534576 25.5198 0.367567 24.8048 0.367567H24.7875C22.7551 0.367567 21.5358 0.734816 20.5598 1.01908C20.3162 1.08577 20.0887 1.16876 19.8609 1.21924C18.7392 1.5035 17.8604 1.62043 16.8855 1.62043C14.9988 1.62043 12.7708 1.15254 9.61672 0.0833072C9.46996 0.0327507 9.30704 3.9856e-10 9.1452 0C8.51116 -1.56144e-09 7.95784 0.383783 7.71384 0.985136C7.14476 2.43935 7.3726 4.2272 8.29908 5.64744C8.429 5.8476 8.57572 6.04864 8.73868 6.2326C4.52708 8.30436 2.36373 11.5618 1.29119 14.0351C0.656748 15.4894 0.233345 17.0253 0.0715044 18.5134C-0.0752511 19.8836 0.00543802 21.0862 0.299336 21.8878C0.396193 22.172 0.591764 22.4062 0.835376 22.557C0.266302 27.2521 1.86019 31.4453 4.26616 33.6683C4.50976 33.902 4.8356 34.0189 5.17724 34.0189C5.30672 34.0189 5.42084 34.0016 5.53464 33.9688C6.0392 34.8544 6.62444 35.656 7.29152 36.3742C9.24196 38.4135 11.8607 39.6328 15.1127 40H15.2584C15.7787 40 16.2341 39.6991 16.4619 39.249C17.9263 39.6663 19.4542 39.8503 20.8206 39.8503C27.1138 39.8503 28.1213 36.2572 28.2681 35.3389C27.2594 35.7061 26.2676 35.6058 25.7316 35.5726C25.0641 35.5225 24.1373 35.1553 23.6012 34.8205C22.7711 34.3024 20.7876 32.5987 20.8364 29.4573C20.9013 24.7622 25.1291 23.6262 26.5762 23.7096C27.9096 23.776 29.1623 24.1609 30.1867 25.0126C30.2029 25.0292 30.2186 25.0466 30.2359 25.0632L30.2836 25.1134C31.1136 25.7814 32.1546 26.149 33.1952 26.149C34.0571 26.149 34.9021 25.915 35.6341 25.447C37.0482 24.5614 37.9101 23.0077 37.9101 21.304C37.9101 20.8866 37.8624 20.5017 37.7802 20.1179C37.7802 20.1002 37.7644 20.0839 37.7644 20.05C37.6507 19.5833 37.4547 19.1478 37.1792 18.6976C36.9513 17.6106 36.6908 16.8257 36.0245 15.8568C35.9596 15.756 35.8615 15.6558 35.7639 15.5725H35.7969C35.9757 15.5725 36.1543 15.5386 36.333 15.4718C37.8131 14.8543 38.3335 13.434 38.5445 12.6993L38.5933 12.6653C38.6582 12.582 39.0648 12.0134 39.2765 11.5622L39.3095 11.4955C39.3571 11.396 39.3902 11.3118 39.4232 11.2285C39.6988 10.5103 39.8947 9.74156 39.9916 8.9566C40.0248 8.4706 39.9598 7.98608 39.7969 7.55216Z" fill="#F4F4F5"/>
<path id="Vector_2" d="M37.9666 7.30146C37.3325 6.90026 36.7793 6.34906 36.4865 5.89738C36.4384 5.81446 36.5353 5.71378 36.6174 5.76394C37.1377 6.08142 37.9996 6.61598 38.6007 6.8675C38.6337 6.8837 38.6817 6.84978 38.6817 6.81694C38.6656 6.56662 38.6337 6.36566 38.5849 6.24842C38.4062 5.68102 34.8606 3.22433 31.7065 3.29102C29.8528 3.34118 27.8193 2.3221 26.3402 1.95486C25.9655 1.85422 25.3312 1.73689 24.7951 1.72075C22.4368 1.72075 21.3152 2.25533 20.1765 2.53967C17.4771 3.22433 14.9244 3.30843 9.21726 1.3698C9.11962 1.33705 8.98974 1.38642 8.9567 1.48665C8.04558 3.80915 10.0952 7.25138 13.5098 6.51654C13.559 6.49882 13.5909 6.5667 13.5417 6.59946C12.9565 7.08394 11.7053 7.23474 10.9241 7.00066C10.7784 6.9505 10.6155 6.93426 10.4525 6.9505C1.91528 10.3422 0.679897 19.2317 1.55795 21.4369C2.09399 19.4492 2.94018 18.38 3.70412 17.5939C0.581957 23.8763 2.33884 30.1755 5.26538 32.7318C4.80962 31.2622 4.79386 29.7251 5.10246 28.4382C6.01314 34.152 9.26522 38.012 15.3954 38.6473C14.0793 38.0459 13.1525 36.6759 12.8427 35.7563C15.4446 38.6635 23.4127 39.5491 25.7056 36.9424C24.7457 36.8922 23.5595 36.3916 22.892 35.99C21.0545 34.8379 19.5105 32.665 19.4286 29.6571C19.3794 27.8029 20.1445 25.6979 21.9651 24.0096C18.2089 24.7455 12.5498 21.5201 12.9737 15.3053C13.3802 22.4559 19.7383 24.2777 23.6893 22.9743C24.567 22.5893 25.5269 22.3553 26.5345 22.3553C28.2256 22.3553 29.7707 22.9578 30.99 23.9607C31.0231 23.9934 31.0549 24.0096 31.088 24.0436C31.6571 24.5115 32.3883 24.7957 33.1853 24.7957C33.8367 24.7957 34.4219 24.611 34.9422 24.2939C35.9179 23.6763 36.5681 22.5727 36.5681 21.3199C36.5681 21.0029 36.535 20.7186 36.4701 20.4506V20.4178C36.3564 19.9839 36.1615 19.6155 35.9179 19.2645C35.7062 18.1625 35.5114 17.5272 34.9253 16.6589C34.8773 16.591 34.7955 16.625 34.7793 16.7079C34.7635 17.0766 34.7305 17.4099 34.6656 17.7107C34.6167 17.9785 34.5357 18.4289 34.4538 18.78C34.3078 19.3324 34.8443 19.3324 35.104 19.3651C35.0391 19.5487 34.3078 19.5159 34.2751 19.3813V19.3651C34.2751 19.2984 34.2589 19.1811 34.2433 19.0315C34.161 18.2126 33.9016 17.2429 33.1693 16.6087C33.1047 16.5421 32.9905 16.625 32.9905 16.7584C32.8925 17.7775 32.6489 18.9146 32.3565 19.5488V19.5827C31.3966 19.3991 30.177 18.9147 28.8766 18.7638C26.6325 18.5131 25.4939 18.2454 25.3801 16.9421C25.3801 16.8919 25.4451 16.8754 25.462 16.9259C25.7867 17.5773 26.0964 18.1625 27.9497 18.463C28.0146 18.4796 28.0466 18.3801 27.982 18.3461C26.5675 17.5107 26.6324 16.9093 26.7135 15.8235C26.7135 15.7556 26.7304 15.7066 26.7462 15.6565C27.0709 13.9014 28.4373 12.7149 29.413 12.1135C29.4622 12.0796 29.4461 11.9967 29.38 11.9967C28.0147 12.1641 26.6816 12.7817 25.7218 14.3025C25.8197 14.0021 25.9654 13.6839 26.1609 13.383C27.8029 10.794 30.9251 11.3286 33.1693 11.7297C33.2991 12.4144 33.2672 13.4007 33.1204 14.3025C33.1047 14.4198 33.2023 14.5201 33.2991 14.4862C34.5357 13.9855 35.0879 12.8823 35.3645 12.0306C35.6081 12.0796 36.0797 12.1475 36.5523 12.1301C36.5681 12.1301 36.5681 12.1475 36.5523 12.1475C36.1446 12.1968 35.7711 12.2141 35.7223 12.1968C35.7061 12.1968 35.6904 12.2308 35.7061 12.247C35.8202 12.6987 35.804 13.4674 35.7061 14.1355C35.6903 14.2185 35.7553 14.2863 35.8202 14.2524C37.0395 13.7339 37.2512 12.3138 37.3649 11.9465C37.413 11.9299 37.446 11.8959 37.4791 11.8798C37.4791 11.8798 37.4949 11.8798 37.4949 11.896C37.4949 11.8798 37.511 11.8798 37.511 11.8633C37.5759 11.7792 37.8857 11.3286 38.0313 11.0278C38.0313 11.0278 38.0313 11.0105 38.0471 11.0105C38.0471 10.9943 38.0644 10.9777 38.0644 10.9615C38.0963 10.8949 38.1132 10.8443 38.1451 10.7775C38.4059 10.126 38.5516 9.45678 38.6335 8.82266C38.7305 8.18706 38.4538 7.61854 37.9666 7.30146ZM24.4043 4.74526C24.2586 4.36026 24.2586 3.97648 24.4865 3.6756C24.6322 3.47576 24.3236 3.24166 23.7384 3.45804C23.884 3.34118 24.0631 3.27441 24.2587 3.24166C24.4374 3.20772 24.6322 3.22433 24.8282 3.25788C25.2017 3.32457 25.5591 3.45803 25.8519 3.69222C26.1125 3.85962 26.3722 4.07718 26.6819 4.26082C26.6647 4.52774 26.584 4.79542 26.4211 5.09626C25.7707 4.8783 25.1855 4.66194 24.4043 4.74526ZM26.6169 5.16258C26.8445 5.01178 27.0393 4.79534 27.1849 4.51106C27.2022 4.51106 27.2341 4.52766 27.251 4.52766C27.3647 4.56122 27.4788 4.59406 27.6087 4.62798C27.7224 4.64462 27.8523 4.66194 27.9661 4.66194C28.0798 4.66194 28.2097 4.64462 28.3396 4.64462C28.0641 4.81194 27.4127 5.38054 26.6169 5.16258Z" fill="black"/>
</g>
</g>
</g>
<defs>
<clipPath id="clip0_0_1">
<rect width="40" height="40" fill="white"/>
</clipPath>
</defs>
</svg>
